<?xml version="1.0" encoding="UTF-8"?>
<svg width="40px" height="40px" viewBox="0 0 40 40" version="1.1" xmlns="http://www.w3.org/2000/svg" xmlns:xlink="http://www.w3.org/1999/xlink">
    <g id="Symbols" stroke="none" stroke-width="1" fill="none" fill-rule="evenodd">
        <g transform="translate(-18.000000, -16.000000)" fill="#FFFFFF">
            <path d="M38,56 C26.9541721,56 18,47.0458279 18,36 C18,24.9541721 26.9541721,16 38,16 C49.0458279,16 58,24.9541721 58,36 C58,47.0458279 49.0458279,56 38,56 Z M46.5567987,28.5513991 C45.743199,29.843183 45.4526277,31.8204407 45.706134,33.5396161 L45.7290137,33.6915368 C45.9482005,35.15263 46.3559155,37.8725605 44.1539799,39.9395063 C43.6094447,40.4506372 43.0090832,40.835015 42.367996,41.0770815 C41.9575354,41.2317478 41.7214176,41.2816254 41.4377102,41.3287574 C41.1544604,41.376347 40.8670922,41.4005994 40.5847576,41.4005994 C40.2891528,41.4005994 39.9816505,41.376347 39.6714028,41.3264694 C39.534125,41.304505 39.208319,41.2441028 38.8454481,41.1411444 C38.1544833,40.9452948 37.4429268,40.6313863 36.7277095,40.214977 C33.3049168,38.2207884 30.4353536,37.5472121 28.8754204,37.4762853 C28.6374723,37.4657606 28.4018121,37.4602695 28.1698126,37.4643879 C28.1400691,37.4648454 28.119935,37.455236 28.0988858,37.4337292 C27.6843069,37.0058801 27.1727183,36.400485 26.7380054,35.6916741 C26.7197016,35.6619306 26.7439541,35.6321871 26.7769007,35.6445421 C29.2442401,36.5867252 31.5175601,37.1042625 33.5648294,37.1042625 C34.249388,37.1042625 34.9453863,37.0539273 35.692635,36.950969 C38.5795868,36.5528634 40.4749354,34.9604411 41.3256,32.2180886 C41.9840758,30.0966893 42.5693367,29.7145995 43.1605464,29.4853456 C43.7261308,29.2652436 44.1260668,29.0373624 44.495344,28.5239435 C44.7012607,28.2379482 44.8486055,27.9633926 44.9492759,27.750612 C44.9565973,27.7355115 44.979477,27.7364267 44.9840529,27.7515272 C45.0371336,27.9226668 45.0979935,28.121262 45.1808177,28.3798019 C45.3245018,28.8296154 45.5047933,29.0195163 46.0163818,28.7801954 C46.1413046,28.7211659 46.3673553,28.5971583 46.5220216,28.5175372 C46.5513076,28.5024367 46.5714416,28.5280619 46.5567987,28.5513991 Z M40.5623356,45.3729609 C40.186652,45.3281168 39.7963255,45.3034068 39.3968472,45.3034068 C39.0975816,45.3034068 38.8038072,45.3171346 38.516439,45.3432173 L39.5405313,42.2439426 C39.8969959,42.3002265 40.2488846,42.3290548 40.5939094,42.3290548 C40.9343583,42.3290548 41.2684009,42.2997689 41.5960372,42.2448578 L40.5623356,45.3729609 Z M47.6733246,27.3488457 C47.4170728,27.1191342 46.9915117,27.3488457 46.6698241,27.4984785 C46.3783376,27.6339259 46.1490837,27.750612 46.0671746,27.7908802 C45.9980781,27.8251996 45.9344727,27.7863043 45.9115931,27.72819 C45.8850527,27.6600087 45.7729425,27.2930194 45.6946942,27.0459194 C45.5981422,26.7402476 45.4874048,26.2588601 45.1538198,26.2007459 C44.791864,26.1375981 44.517766,26.5860388 44.3155101,27.0029057 C44.2317707,27.1758757 44.1054751,27.565287 43.7737205,28.0260828 C43.5536184,28.3322122 43.3408379,28.4804722 42.8434347,28.6735763 C41.8394765,29.0639028 41.1475965,29.8111515 40.4744778,31.9792253 C39.7459903,34.3294209 38.1622623,35.7305695 35.5786945,36.0865765 C33.4632439,36.3785206 30.956094,36.3519802 27.0423044,34.8208754 C26.464365,34.5952822 26.2721761,34.4936967 25.7967374,34.2891528 C25.6228522,34.2145652 25.4091564,34.3015078 25.3167227,34.3934839 C25.1405496,34.569657 25.1332281,34.7897591 25.2750818,35.0771272 C25.6626627,35.8618986 26.8803167,37.6172238 27.6138376,38.3278651 C27.7790285,38.4880225 27.946965,38.5145629 28.1396115,38.4839042 C28.3331732,38.4532455 28.5189558,38.4138925 28.8749628,38.4051983 C30.3502414,38.4207564 33.1136431,39.1744114 36.2833871,41.0207976 C37.0722768,41.4806782 37.849269,41.8179239 38.6061272,42.0348228 L37.4616881,45.5010868 C36.7903997,45.6447709 36.1936989,45.8635001 35.7232938,46.1472075 C35.4780241,46.2954675 35.3988606,46.6144096 35.5471206,46.8601368 C35.6953806,47.1054065 36.0143226,47.18457 36.2600499,47.03631 C36.9803006,46.6020546 38.1531105,46.342142 39.3968472,46.342142 C40.6405839,46.342142 41.8129361,46.6020546 42.5336445,47.03631 C42.6173839,47.0871028 42.7098176,47.1113552 42.8013362,47.1113552 C42.9775093,47.1113552 43.1491066,47.021667 43.2465738,46.8601368 C43.3948338,46.6144096 43.3156703,46.2954675 43.069943,46.1472075 C42.6420939,45.8886677 42.1089986,45.6841238 41.5100098,45.5404397 L42.6970051,41.946965 C43.4424234,41.6632576 44.1411673,41.2230535 44.779509,40.6236072 C47.4124969,38.1526071 46.8217448,34.895463 46.6062187,33.4362002 C46.3906926,31.9737342 46.4808383,30.5611458 47.4106665,28.6410872 C47.6138376,28.2214748 48.0137735,27.6526872 47.6733246,27.3488457 Z" id="Logo"></path>
        </g>
    </g>
</svg>